<svg width="16" height="16" viewBox="0 0 16 16" fill="none" xmlns="http://www.w3.org/2000/svg">
<path d="M4 12.998V2.99805H8.35636C10.2691 2.99805 11.4982 3.98211 11.4982 5.49978V5.51364C11.4982 6.58779 10.6473 7.55106 9.52 7.69659V7.73124C10.9964 7.85598 12 8.84004 12 10.1567V10.1706C12 11.917 10.64 12.998 8.4 12.998H4ZM7.88364 4.39098H5.87636V7.22535H7.56364C8.91636 7.22535 9.64364 6.69867 9.64364 5.75619V5.74233C9.64364 4.87608 8.99636 4.39098 7.88364 4.39098ZM7.86182 8.52126H5.87636V11.6051H7.97091C9.34545 11.6051 10.0873 11.0715 10.0873 10.0667V10.0528C10.0873 9.04794 9.33091 8.52126 7.86182 8.52126Z" fill="white"/>
</svg>
