<svg width="16" height="16" viewBox="0 0 16 16" fill="none" xmlns="http://www.w3.org/2000/svg">
<path d="M9.40597 12.7252L9.3208 12.998H5L5.10841 12.7252C5.54204 12.7154 5.82854 12.6809 5.96792 12.6219C6.19506 12.5384 6.36283 12.4228 6.47124 12.2753C6.64159 12.0443 6.81711 11.6313 6.99779 11.0364L8.82522 5.00395C8.98009 4.50247 9.05752 4.12391 9.05752 3.86825C9.05752 3.74043 9.02397 3.63227 8.95686 3.54377C8.88975 3.45527 8.7865 3.3889 8.64712 3.34465C8.51291 3.29549 8.24705 3.27091 7.84956 3.27091L7.94248 2.99805H12L11.9148 3.27091C11.5844 3.26599 11.3392 3.30041 11.1792 3.37415C10.9469 3.47248 10.7688 3.6126 10.6449 3.79451C10.5262 3.97641 10.3713 4.37956 10.1803 5.00395L8.36062 11.0364C8.19543 11.592 8.11283 11.9459 8.11283 12.0983C8.11283 12.2213 8.14381 12.327 8.20575 12.4155C8.27286 12.499 8.37611 12.5654 8.51549 12.6146C8.66003 12.6588 8.95686 12.6957 9.40597 12.7252Z" fill="white"/>
</svg>
