<svg width="24" height="25" viewBox="0 0 24 25" fill="none" xmlns="http://www.w3.org/2000/svg">
<path d="M4.47179 18.8042C4.27653 18.9994 4.27653 19.316 4.47179 19.5113C4.66706 19.7065 4.98364 19.7065 5.1789 19.5113L4.47179 18.8042ZM8.92361 15.0595L9.27717 14.7059C9.08191 14.5106 8.76532 14.5106 8.57006 14.7059L8.92361 15.0595ZM10.9727 17.1086L10.6192 17.4622C10.8145 17.6574 11.131 17.6574 11.3263 17.4622L10.9727 17.1086ZM15.5833 12.498L15.9369 12.1445C15.7416 11.9492 15.425 11.9492 15.2297 12.1445L15.5833 12.498ZM19.328 16.9499C19.5233 17.1451 19.8399 17.1451 20.0351 16.9499C20.2304 16.7546 20.2304 16.438 20.0351 16.2428L19.328 16.9499ZM5.1789 19.5113L9.27717 15.413L8.57006 14.7059L4.47179 18.8042L5.1789 19.5113ZM8.57006 15.413L10.6192 17.4622L11.3263 16.755L9.27717 14.7059L8.57006 15.413ZM11.3263 17.4622L15.9369 12.8516L15.2297 12.1445L10.6192 16.755L11.3263 17.4622ZM15.2297 12.8516L19.328 16.9499L20.0351 16.2428L15.9369 12.1445L15.2297 12.8516ZM6.87448 4.80151H17.1201V3.80151H6.87448V4.80151ZM19.6938 7.37521V17.6209H20.6938V7.37521H19.6938ZM17.1201 20.1946H6.87448V21.1946H17.1201V20.1946ZM4.30078 17.6209V7.37521H3.30078V17.6209H4.30078ZM6.87448 20.1946C5.45307 20.1946 4.30078 19.0423 4.30078 17.6209H3.30078C3.30078 19.5946 4.90078 21.1946 6.87448 21.1946V20.1946ZM19.6938 17.6209C19.6938 19.0423 18.5416 20.1946 17.1201 20.1946V21.1946C19.0938 21.1946 20.6938 19.5946 20.6938 17.6209H19.6938ZM17.1201 4.80151C18.5416 4.80151 19.6938 5.9538 19.6938 7.37521H20.6938C20.6938 5.40151 19.0938 3.80151 17.1201 3.80151V4.80151ZM6.87448 3.80151C4.90078 3.80151 3.30078 5.40151 3.30078 7.37521H4.30078C4.30078 5.9538 5.45307 4.80151 6.87448 4.80151V3.80151ZM9.44818 8.91206C9.44818 9.4847 8.98397 9.94891 8.41133 9.94891V10.9489C9.53625 10.9489 10.4482 10.037 10.4482 8.91206H9.44818ZM8.41133 9.94891C7.83869 9.94891 7.37448 9.4847 7.37448 8.91206H6.37448C6.37448 10.037 7.28641 10.9489 8.41133 10.9489V9.94891ZM7.37448 8.91206C7.37448 8.33943 7.83869 7.87521 8.41133 7.87521V6.87521C7.28641 6.87521 6.37448 7.78714 6.37448 8.91206H7.37448ZM8.41133 7.87521C8.98397 7.87521 9.44818 8.33943 9.44818 8.91206H10.4482C10.4482 7.78714 9.53625 6.87521 8.41133 6.87521V7.87521Z" fill="white"/>
</svg>
