<svg width="24" height="25" viewBox="0 0 24 25" fill="none" xmlns="http://www.w3.org/2000/svg">
<path d="M8.3 10.4981C8.17109 10.5051 8.04274 10.4764 7.92916 10.415C7.81557 10.3537 7.72116 10.2621 7.65637 10.1504C7.59159 10.0387 7.55894 9.91134 7.56205 9.78227C7.56517 9.65321 7.60391 9.52751 7.674 9.4191L11.4 3.4981C11.4585 3.39267 11.5433 3.30415 11.6462 3.24113C11.749 3.17811 11.8663 3.14272 11.9869 3.13839C12.1074 3.13406 12.227 3.16095 12.334 3.21644C12.4411 3.27192 12.532 3.35413 12.598 3.4551L16.3 9.3981C16.373 9.50289 16.4159 9.62564 16.4241 9.75308C16.4323 9.88051 16.4055 10.0078 16.3466 10.121C16.2877 10.2343 16.1989 10.3294 16.0899 10.3958C15.9808 10.4623 15.8557 10.4976 15.728 10.4981H8.3Z" stroke="white" stroke-linecap="round" stroke-linejoin="round"/>
<path d="M9 14.4981H4C3.44772 14.4981 3 14.9458 3 15.4981V20.4981C3 21.0504 3.44772 21.4981 4 21.4981H9C9.55228 21.4981 10 21.0504 10 20.4981V15.4981C10 14.9458 9.55228 14.4981 9 14.4981Z" stroke="white" stroke-linecap="round" stroke-linejoin="round"/>
<path d="M17.5 21.4981C19.433 21.4981 21 19.9311 21 17.9981C21 16.0651 19.433 14.4981 17.5 14.4981C15.567 14.4981 14 16.0651 14 17.9981C14 19.9311 15.567 21.4981 17.5 21.4981Z" stroke="white" stroke-linecap="round" stroke-linejoin="round"/>
</svg>
