<svg width="24" height="24" viewBox="0 0 24 24" fill="none" xmlns="http://www.w3.org/2000/svg">
<path d="M15.2683 7.0353V6.37336C15.2683 5.44655 15.2683 4.98315 15.0902 4.62915C14.9335 4.31777 14.6834 4.06461 14.3759 3.90595C14.0263 3.72559 13.5686 3.72559 12.6532 3.72559H11.3457C10.4303 3.72559 9.97264 3.72559 9.62302 3.90595C9.31548 4.06461 9.06544 4.31777 8.90874 4.62915C8.7306 4.98315 8.7306 5.44655 8.7306 6.37336V7.0353M10.365 11.5862V15.7233M13.6339 11.5862V15.7233M4.64453 7.0353H19.3544M17.72 7.0353V16.3025C17.72 17.6927 17.72 18.3878 17.4527 18.9188C17.2177 19.3859 16.8426 19.7656 16.3813 20.0036C15.8569 20.2742 15.1704 20.2742 13.7973 20.2742H10.2016C8.82854 20.2742 8.14201 20.2742 7.61758 20.0036C7.15627 19.7656 6.78122 19.3859 6.54617 18.9188C6.27896 18.3878 6.27896 17.6927 6.27896 16.3025V7.0353" stroke="white" stroke-linecap="round" stroke-linejoin="round"/>
</svg>
